<?xml version="1.0" encoding="utf-8"?>
<!-- Generator: Adobe Illustrator 18.1.1, SVG Export Plug-In . SVG Version: 6.00 Build 0)  -->
<svg version="1.1" id="logo_1_" xmlns="http://www.w3.org/2000/svg" xmlns:xlink="http://www.w3.org/1999/xlink" x="0px" y="0px"
	 width="110px" height="100px" viewBox="0 0 110 100" enable-background="new 0 0 265 100" xml:space="preserve">
<g id="Shape_1">
	<g>
		<path fill-rule="evenodd" clip-rule="evenodd" fill="#211E1C" d="M108.499,46.944c-3.914-9.26-21.998-14.494-29.421-15.702
			c-7.423-1.208-26.722-1.879-36.034,8.186C33.731,49.494,21.99,68.685,37.24,86.131c11.731,15.167,25.642,15.03,33.335,12.749
			c9.166-2.77,16.6-18.654,11.067-26.572c-5.533-7.918-21.729-8.857-21.729-7.918c0,0.94,12.011,4.831,13.361,11.407
			c1.82,8.866-16.563,19.299-29.556,0.134c-7.693-16.641,8.503-26.035,13.361-28.45c4.859-2.415,36.139-5.811,43.052,3.489
			c6.883,9.26-3.509,31.672-1.754,32.074C100.131,83.447,112.412,56.204,108.499,46.944z"/>
	</g>
</g>
<g id="Shape_2">
	<g>
		<path fill-rule="evenodd" clip-rule="evenodd" fill="#D40707" d="M26.974,55.797c0.006,0.02,0.008,0.039,0.013,0.059
			C27.086,55.703,27.085,55.668,26.974,55.797z M13.581,68.964c3.285-1.978,15.371-5.989,13.407-13.108
			C26.16,57.142,17.822,67.31,0.001,68.079c5.745,16.131,20.257,16.974,30.237,16.289C15.357,77.613,5.622,73.209,13.581,68.964z"/>
	</g>
</g>
<g id="Shape_2_copy">
	<g>
		<path fill-rule="evenodd" clip-rule="evenodd" fill="#211E1C" d="M18.182,3.842C5.27,25.216,17.77,42.22,27.795,52.741
			c-6.158-22.897-10.202-37.86,1.974-32.899c5.281,1.838,21.018,11.63,27.246,2.836C54.793,22.945,35.57,23.051,18.182,3.842z
			 M57.069,22.609c-0.017,0.025-0.037,0.045-0.054,0.07C57.279,22.647,57.317,22.613,57.069,22.609z"/>
	</g>
</g>
<g id="Shape_2_copy_2">
	<g>
		<path fill-rule="evenodd" clip-rule="evenodd" fill="#211E1C" d="M73.562-0.002C60.935,3.938,59.88,15.005,60.131,22.651
			c5.635-11.184,9.31-18.5,12.369-12.3c1.437,2.565,4.2,11.913,9.757,10.61C81.286,20.292,73.66,13.638,73.562-0.002z
			 M82.303,20.952c-0.016,0.004-0.03,0.005-0.046,0.009C82.372,21.04,82.399,21.04,82.303,20.952z"/>
	</g>
</g>
</svg>
